<?xml version="1.0" encoding="UTF-8"?><svg id="Layer_1" xmlns="http://www.w3.org/2000/svg" width="45" height="45" viewBox="0 0 45 45"><defs><style>.cls-1{fill:#9b92ff;}.cls-1,.cls-2{stroke-width:0px;}.cls-2{fill:#fff;}</style></defs><g id="Purple_Logo"><rect class="cls-1" x="1.03" y="1.04" width="42.93" height="42.93" rx="14.6" ry="14.6" transform="translate(-.12 44.89) rotate(-89.71)"/><path class="cls-2" d="M17.87,28.01c.23.35.14.82-.21,1.05-.35.23-.82.14-1.05-.21-.13-.19-.25-.39-.35-.59h0c-.11-.2-.2-.41-.29-.62-.09-.22-.17-.44-.24-.66s-.12-.44-.17-.67-.08-.47-.1-.71c-.02-.25-.04-.49-.03-.71l.06-11.03c0-.42.34-.76.76-.76s.76.34.76.76l-.06,11.03c0,.21,0,.39.02.57.02.19.05.37.08.55.04.18.08.35.13.53s.12.35.18.51c.07.16.15.32.23.48h0c.09.16.18.32.28.46M27.96,23.97c-.07-.41.2-.8.62-.88.41-.07.8.2.88.62.04.2.06.41.08.63h0c.02.21.03.42.02.63,0,1.95-.81,3.72-2.1,4.99s-3.06,2.06-5.01,2.05c-.23,0-.47-.02-.71-.04-.24-.03-.48-.06-.71-.11-.23-.05-.46-.11-.67-.18-.22-.07-.44-.15-.65-.24-.12-.05-.22-.1-.31-.14-.09-.04-.19-.1-.31-.16-.37-.2-.5-.66-.3-1.03s.66-.5,1.03-.3c.07.04.15.08.24.12.09.05.17.08.24.11.16.07.33.13.51.19.18.06.35.1.53.14.18.04.37.07.55.09.17.02.36.03.57.03,1.53,0,2.92-.61,3.93-1.61s1.64-2.38,1.65-3.92c0-.17,0-.34-.02-.5h0c-.01-.16-.04-.33-.06-.49h0ZM32.49,27.04c-.09.41-.49.67-.9.59-.41-.09-.67-.49-.59-.9.06-.28.11-.57.14-.87.03-.28.05-.57.05-.89.01-2.1-.72-4.03-1.95-5.54-1.25-1.54-3.02-2.64-5.04-3.04-.48-.09-.79.03-.94.25-.06.09-.1.19-.13.3-.02.12-.02.25,0,.37.07.31.31.6.76.69.19.04.39.09.6.15.2.06.39.13.58.2.18.07.37.15.55.25.19.09.36.19.53.29s.33.21.5.33.32.25.47.37c.15.13.3.27.43.41.13.14.27.28.4.44.27.32.22.8-.1,1.06-.32.27-.8.22-1.06-.1-.09-.11-.2-.23-.31-.35-.11-.11-.22-.22-.34-.32-.12-.11-.25-.21-.37-.29-.12-.09-.25-.18-.39-.26-.14-.09-.28-.16-.42-.23s-.28-.13-.43-.19c-.15-.06-.3-.11-.46-.16-.14-.04-.29-.08-.47-.11-1.11-.23-1.75-1-1.94-1.86-.07-.32-.07-.65-.02-.96.06-.32.19-.63.38-.9.47-.67,1.31-1.09,2.47-.86,2.37.47,4.45,1.77,5.92,3.57,1.45,1.77,2.31,4.04,2.3,6.5,0,.33-.02.68-.06,1.03s-.09.69-.16,1.02h0ZM12.29,20.69c0-.42.34-.76.76-.76s.76.34.76.76l-.02,4.19c-.01,2.4.95,4.58,2.52,6.17,1.57,1.58,3.74,2.57,6.14,2.58.31,0,.61,0,.89-.04.3-.03.59-.07.87-.13s.56-.13.83-.21c.28-.08.55-.18.8-.29.24-.1.49-.22.76-.36h0c.24-.12.48-.27.72-.43s.47-.33.67-.5c.2-.16.41-.35.62-.56s.4-.41.57-.61.34-.43.5-.67c.24-.35.71-.44,1.05-.2.35.24.44.71.2,1.05-.18.26-.38.52-.59.78-.22.27-.44.51-.66.73s-.46.44-.73.66c-.26.21-.53.41-.79.58-.26.18-.55.34-.85.51h0c-.27.15-.57.29-.89.43-.31.13-.63.24-.95.34-.32.1-.64.18-.97.24-.34.07-.68.12-1.02.15-.35.03-.7.05-1.04.05-2.82,0-5.37-1.17-7.21-3.03-1.84-1.86-2.97-4.42-2.96-7.24l.02-4.19h0ZM22.96,27.29c.41-.08.81.19.89.6s-.19.81-.6.89c-.13.03-.26.05-.39.06-.14.01-.28.02-.4.02-1.08,0-2.06-.45-2.77-1.16-.71-.71-1.14-1.7-1.13-2.78l.06-11.17c0-.66-.26-1.26-.69-1.69-.43-.44-1.03-.71-1.68-.71s-1.26.26-1.69.69c-.44.43-.71,1.03-.71,1.68l-.02,4.19c0,.42-.34.76-.76.76s-.76-.34-.76-.76l.02-4.19c0-1.08.45-2.05,1.16-2.76.71-.7,1.69-1.14,2.77-1.13,1.08,0,2.05.45,2.76,1.16.7.71,1.14,1.69,1.13,2.77l-.06,11.17c0,.66.26,1.27.69,1.7s1.03.71,1.69.71h.25c.08,0,.16-.02.24-.04h0ZM22.5,22.53c-.42,0-.76-.34-.76-.76s.34-.76.76-.76c1.08,0,2.06.45,2.77,1.16.71.71,1.14,1.7,1.13,2.78,0,.12,0,.25-.02.4-.01.13-.03.26-.06.39-.03.13-.06.25-.1.37s-.08.24-.14.36c-.16.38-.61.56-.99.4s-.56-.61-.4-.99c.03-.07.06-.14.08-.22s.04-.15.06-.23c.02-.08.03-.16.04-.24,0-.07.01-.15.01-.25,0-.66-.26-1.27-.69-1.7s-1.03-.71-1.69-.71h0Z"/></g></svg>