<?xml version="1.0" encoding="UTF-8"?><svg id="Layer_1" xmlns="http://www.w3.org/2000/svg" width="80" height="50" viewBox="0 0 80 50"><defs><style>.cls-1{fill:#146ef5;}.cls-1,.cls-2,.cls-3{stroke-width:0px;}.cls-1,.cls-3{fill-rule:evenodd;}.cls-2,.cls-3{fill:#000;}</style></defs><path class="cls-1" d="M22.29,18.66l-6.49,12.69h-6.1l2.72-5.26h-.12c-2.24,2.91-5.58,4.82-10.35,5.26v-5.18s3.05-.18,4.84-2.06H1.95v-5.44h5.44v4.47h.12s2.22-4.47,2.22-4.47h4.11v4.44h.12s2.31-4.44,2.31-4.44h6.02Z"/><path class="cls-2" d="M57.67,29.94h1.75v-10.05h-1.75v10.05Z"/><path class="cls-3" d="M48.02,29.84c.38.16.77.24,1.16.24.65,0,1.23-.16,1.74-.47.51-.32.91-.75,1.19-1.31.28-.56.42-1.2.42-1.91s-.15-1.34-.44-1.91c-.29-.56-.69-.99-1.21-1.3-.52-.31-1.11-.47-1.76-.46-.42,0-.82.08-1.21.24-.38.16-.71.39-.96.69-.02.02-.04.05-.06.07v-3.83h-1.76v10.05h1.74v-.94c.04.06.09.11.14.16.28.29.61.51.99.67ZM49.81,28.22c-.29.18-.61.26-.98.26s-.7-.09-1-.27c-.3-.18-.55-.43-.72-.75-.18-.32-.26-.68-.26-1.08,0-.4.08-.76.26-1.08.18-.32.42-.57.72-.74.3-.18.64-.27,1.01-.26.37,0,.69.08.98.26.29.17.51.42.67.74.16.32.24.68.24,1.09s-.08.77-.24,1.09c-.15.32-.38.56-.67.74Z"/><path class="cls-2" d="M24.82,20.5h2l1.79,6.54,1.9-6.54h1.67l2.07,6.41,1.72-6.41h1.83l-2.71,9.44h-1.73l-2.1-6.26-1.93,6.26h-1.74l-2.78-9.44Z"/><path class="cls-3" d="M40.76,30.11c-.7,0-1.33-.15-1.89-.46-.56-.32-.99-.75-1.32-1.32-.32-.56-.47-1.2-.47-1.92s.16-1.33.49-1.89c.32-.56.77-1.01,1.32-1.32.56-.32,1.18-.47,1.86-.47.77,0,1.44.17,2.02.51.58.34,1.02.83,1.3,1.46.29.62.4,1.34.31,2.15h-5.49c.02.32.1.61.24.88.16.29.39.52.68.68.29.16.62.24.98.24.27,0,.53-.05.76-.14.24-.09.43-.22.6-.38.17-.16.28-.34.35-.54h1.83c-.11.49-.33.93-.67,1.32-.33.38-.75.68-1.26.89-.5.21-1.06.32-1.66.31ZM39.15,25.08c-.1.18-.17.37-.21.58h3.64c-.03-.26-.11-.5-.24-.71-.15-.25-.36-.45-.63-.58-.27-.14-.56-.21-.9-.21-.35,0-.68.08-.97.24-.29.16-.52.39-.69.69Z"/><path class="cls-2" d="M53.83,22.87c0-.57.13-1.08.39-1.53.26-.45.63-.8,1.1-1.05.47-.25,1.03-.38,1.66-.39v1.56c-.3,0-.55.07-.76.19-.21.12-.36.28-.47.51-.1.2-.16.44-.17.71h1.36v1.48h-1.36v5.59h-1.75v-5.59h-1.13v-1.48h1.13Z"/><path class="cls-3" d="M63.87,30.1c-.71,0-1.35-.16-1.92-.47-.56-.32-1-.75-1.32-1.31-.32-.56-.47-1.2-.47-1.91s.16-1.35.47-1.91c.32-.56.76-1,1.32-1.32.56-.31,1.2-.47,1.92-.47s1.36.16,1.92.47c.57.31,1.01.75,1.33,1.31.32.56.48,1.2.48,1.92,0,.71-.16,1.35-.48,1.91-.31.56-.75.99-1.32,1.31-.57.31-1.21.47-1.93.47ZM63.87,28.49c.38,0,.71-.09,1-.26.29-.18.52-.42.67-.73.16-.32.24-.68.24-1.08s-.08-.77-.24-1.09c-.16-.32-.38-.56-.67-.73-.29-.18-.62-.26-1-.26s-.7.09-.99.26c-.29.17-.51.41-.67.73-.16.32-.24.68-.23,1.09,0,.41.08.77.24,1.08.16.31.38.56.67.73.29.17.62.26.99.26Z"/><path class="cls-2" d="M69.5,22.87h-1.95l2.11,7.07h1.71l1.39-4.52,1.5,4.52h1.68l2.12-7.07h-1.76l-1.2,4.4-1.33-4.4h-1.71l-1.32,4.5-1.23-4.5Z"/></svg>