<?xml version="1.0" encoding="utf-8"?>
<!-- Generator: Adobe Illustrator 28.3.0, SVG Export Plug-In . SVG Version: 6.00 Build 0)  -->
<svg version="1.1" id="Layer_1" xmlns="http://www.w3.org/2000/svg" xmlns:xlink="http://www.w3.org/1999/xlink" x="0px" y="0px"
	 viewBox="0 0 128 128" style="enable-background:new 0 0 128 128;" xml:space="preserve">
<style type="text/css">
	.st0{fill:#9B92FF;}
	.st1{fill:#FFFFFF;}
</style>
<g id="Purple_Logo">
	<path class="st0" d="M3.4,83l0.2-38.7C3.7,21.6,22.2,3.3,45,3.4l38.7,0.2c22.7,0.1,41.1,18.6,41,41.4l-0.2,38.7
		c-0.1,22.7-18.6,41.1-41.4,41l-38.7-0.2C21.6,124.3,3.3,105.8,3.4,83z"/>
	<path class="st1" d="M50.9,79.5c0.6,1,0.4,2.3-0.6,3c-1,0.6-2.3,0.4-3-0.6c-0.4-0.5-0.7-1.1-1-1.7l0,0c-0.3-0.6-0.6-1.2-0.8-1.7
		c-0.3-0.6-0.5-1.2-0.7-1.9s-0.3-1.2-0.5-1.9c-0.1-0.6-0.2-1.3-0.3-2c-0.1-0.7-0.1-1.4-0.1-2l0.2-31.1c0-1.2,1-2.1,2.1-2.1
		c1.2,0,2.1,1,2.1,2.1l-0.2,31.1c0,0.6,0,1.1,0.1,1.6c0.1,0.5,0.1,1,0.2,1.6c0.1,0.5,0.2,1,0.4,1.5c0.1,0.5,0.3,1,0.5,1.4
		c0.2,0.5,0.4,0.9,0.6,1.4l0,0C50.4,78.6,50.7,79.1,50.9,79.5 M79.4,68.1c-0.2-1.2,0.6-2.3,1.7-2.5c1.2-0.2,2.3,0.6,2.5,1.7
		c0.1,0.6,0.2,1.2,0.2,1.8l0,0c0.1,0.6,0.1,1.2,0.1,1.8c0,5.5-2.3,10.5-5.9,14.1c-3.6,3.6-8.6,5.8-14.1,5.8c-0.6,0-1.3-0.1-2-0.1
		c-0.7-0.1-1.4-0.2-2-0.3c-0.6-0.1-1.3-0.3-1.9-0.5c-0.6-0.2-1.2-0.4-1.8-0.7c-0.3-0.1-0.6-0.3-0.9-0.4c-0.3-0.1-0.5-0.3-0.9-0.5
		c-1-0.6-1.4-1.9-0.8-2.9c0.6-1,1.9-1.4,2.9-0.8c0.2,0.1,0.4,0.2,0.7,0.3c0.3,0.1,0.5,0.2,0.7,0.3c0.5,0.2,0.9,0.4,1.4,0.5
		c0.5,0.2,1,0.3,1.5,0.4c0.5,0.1,1,0.2,1.6,0.3c0.5,0.1,1,0.1,1.6,0.1c4.3,0,8.2-1.7,11.1-4.5c2.8-2.8,4.6-6.7,4.7-11.1
		c0-0.5,0-1-0.1-1.4l0,0C79.5,69,79.5,68.6,79.4,68.1C79.4,68.1,79.4,68.1,79.4,68.1z M92.2,76.8c-0.3,1.2-1.4,1.9-2.5,1.7
		c-1.2-0.3-1.9-1.4-1.7-2.5c0.2-0.8,0.3-1.6,0.4-2.5c0.1-0.8,0.1-1.6,0.1-2.5c0-5.9-2-11.4-5.5-15.6c-3.5-4.3-8.5-7.4-14.2-8.6
		c-1.4-0.3-2.2,0.1-2.7,0.7c-0.2,0.3-0.3,0.5-0.4,0.8c-0.1,0.3-0.1,0.7,0,1c0.2,0.9,0.9,1.7,2.1,1.9c0.5,0.1,1.1,0.3,1.7,0.4
		c0.6,0.2,1.1,0.4,1.6,0.6c0.5,0.2,1,0.4,1.6,0.7c0.5,0.3,1,0.5,1.5,0.8c0.5,0.3,0.9,0.6,1.4,0.9c0.5,0.3,0.9,0.7,1.3,1
		c0.4,0.4,0.8,0.8,1.2,1.2c0.4,0.4,0.8,0.8,1.1,1.2c0.8,0.9,0.6,2.3-0.3,3c-0.9,0.8-2.3,0.6-3-0.3c-0.3-0.3-0.6-0.6-0.9-1
		c-0.3-0.3-0.6-0.6-1-0.9c-0.3-0.3-0.7-0.6-1-0.8c-0.3-0.3-0.7-0.5-1.1-0.7c-0.4-0.3-0.8-0.5-1.2-0.6c-0.4-0.2-0.8-0.4-1.2-0.5
		c-0.4-0.2-0.8-0.3-1.3-0.5c-0.4-0.1-0.8-0.2-1.3-0.3c-3.1-0.6-4.9-2.8-5.5-5.2c-0.2-0.9-0.2-1.8-0.1-2.7c0.2-0.9,0.5-1.8,1.1-2.5
		c1.3-1.9,3.7-3.1,7-2.4c6.7,1.3,12.5,5,16.7,10.1c4.1,5,6.5,11.4,6.5,18.3c0,0.9-0.1,1.9-0.2,2.9C92.5,74.9,92.4,75.8,92.2,76.8
		L92.2,76.8L92.2,76.8z M35.2,58.9c0-1.2,1-2.1,2.1-2.1s2.1,1,2.1,2.1l-0.1,11.8c0,6.8,2.7,12.9,7.1,17.4c4.4,4.5,10.5,7.2,17.3,7.3
		c0.9,0,1.7,0,2.5-0.1c0.8-0.1,1.7-0.2,2.5-0.4c0.8-0.2,1.6-0.4,2.3-0.6c0.8-0.2,1.6-0.5,2.3-0.8c0.7-0.3,1.4-0.6,2.1-1l0,0
		c0.7-0.3,1.4-0.8,2-1.2c0.7-0.5,1.3-0.9,1.9-1.4c0.6-0.5,1.2-1,1.7-1.6c0.6-0.6,1.1-1.2,1.6-1.7c0.5-0.6,1-1.2,1.4-1.9
		c0.7-1,2-1.2,3-0.6c1,0.7,1.2,2,0.6,3c-0.5,0.7-1.1,1.5-1.7,2.2c-0.6,0.8-1.2,1.4-1.9,2.1s-1.3,1.2-2.1,1.9
		c-0.7,0.6-1.5,1.2-2.2,1.6c-0.7,0.5-1.6,1-2.4,1.4l0,0c-0.8,0.4-1.6,0.8-2.5,1.2c-0.9,0.4-1.8,0.7-2.7,1c-0.9,0.3-1.8,0.5-2.7,0.7
		c-1,0.2-1.9,0.3-2.9,0.4c-1,0.1-2,0.1-2.9,0.1c-8,0-15.1-3.3-20.3-8.5c-5.2-5.2-8.4-12.5-8.3-20.4L35.2,58.9
		C35.2,58.9,35.2,58.9,35.2,58.9z M65.3,77.5c1.2-0.2,2.3,0.5,2.5,1.7s-0.5,2.3-1.7,2.5c-0.4,0.1-0.7,0.1-1.1,0.2
		c-0.4,0-0.8,0.1-1.1,0.1c-3,0-5.8-1.3-7.8-3.3c-2-2-3.2-4.8-3.2-7.8l0.2-31.5c0-1.9-0.7-3.6-1.9-4.8c-1.2-1.2-2.9-2-4.7-2
		s-3.6,0.7-4.8,1.9c-1.2,1.2-2,2.9-2,4.7L39.6,51c0,1.2-1,2.1-2.1,2.1s-2.1-1-2.1-2.1l0.1-11.8c0-3,1.3-5.8,3.3-7.8
		c2-2,4.8-3.2,7.8-3.2c3,0,5.8,1.3,7.8,3.3c2,2,3.2,4.8,3.2,7.8l-0.2,31.5c0,1.9,0.7,3.6,1.9,4.8c1.2,1.2,2.9,2,4.8,2
		c0.3,0,0.5,0,0.7,0C64.8,77.6,65.1,77.6,65.3,77.5L65.3,77.5L65.3,77.5z M64,64.1c-1.2,0-2.1-1-2.1-2.1s1-2.1,2.1-2.1
		c3,0,5.8,1.3,7.8,3.3c2,2,3.2,4.8,3.2,7.8c0,0.3,0,0.7-0.1,1.1c0,0.4-0.1,0.7-0.2,1.1c-0.1,0.4-0.2,0.7-0.3,1
		c-0.1,0.3-0.2,0.7-0.4,1c-0.5,1.1-1.7,1.6-2.8,1.1c-1.1-0.5-1.6-1.7-1.1-2.8c0.1-0.2,0.2-0.4,0.2-0.6c0.1-0.2,0.1-0.4,0.2-0.6
		c0.1-0.2,0.1-0.5,0.1-0.7c0-0.2,0-0.4,0-0.7c0-1.9-0.7-3.6-1.9-4.8S65.9,64.1,64,64.1C64,64.1,64,64.1,64,64.1z"/>
</g>
</svg>
