<?xml version="1.0" encoding="UTF-8"?><svg id="Layer_1" xmlns="http://www.w3.org/2000/svg" width="76.1" height="21" viewBox="0 0 76.1 21"><defs><style>.cls-1{fill:#2d2d2d;}.cls-1,.cls-2,.cls-3,.cls-4{stroke-width:0px;}.cls-2{fill:#95bf47;}.cls-3{fill:#5e8e3e;}.cls-4{fill:#fff;}</style></defs><path class="cls-2" d="M17.04,3.95c-.01-.11-.11-.16-.18-.17s-1.53-.02-1.53-.02c0,0-1.22-1.19-1.35-1.31s-.35-.08-.45-.06c0,0-.23.07-.62.19-.06-.21-.16-.46-.29-.71-.44-.84-1.07-1.27-1.84-1.27-.05,0-.11,0-.16.01-.02-.02-.05-.05-.07-.08C10.22.16,9.79-.01,9.29,0c-.99.02-1.98.74-2.79,2.02-.57.9-.99,2.02-1.11,2.9-1.14.35-1.94.59-1.95.61-.57.18-.59.19-.67.74-.06.4-1.56,12.04-1.56,12.04l12.61,2.18,5.46-1.36s-2.23-15.09-2.24-15.18ZM12.29,2.78c-.29.08-.62.19-.98.3-.01-.5-.07-1.2-.3-1.81.76.15,1.13.99,1.28,1.5ZM10.65,3.28c-.67.21-1.38.42-2.11.65.21-.78.59-1.55,1.07-2.06.18-.19.42-.4.71-.52.28.57.33,1.38.33,1.93ZM9.3.67c.23,0,.42.05.59.16-.27.13-.53.34-.78.61-.63.68-1.11,1.72-1.31,2.74-.61.18-1.19.36-1.73.53.36-1.6,1.7-3.99,3.22-4.04Z"/><path class="cls-3" d="M16.86,3.78c-.07-.01-1.53-.02-1.53-.02,0,0-1.22-1.19-1.35-1.31-.05-.05-.11-.07-.17-.07v18.12l5.46-1.36s-2.23-15.07-2.24-15.18c-.02-.11-.11-.16-.18-.17Z"/><path class="cls-4" d="M10.79,6.59l-.63,2.38s-.7-.33-1.55-.27c-1.24.07-1.25.85-1.24,1.05.07,1.07,2.86,1.3,3.02,3.78.12,1.96-1.04,3.3-2.71,3.4-2.01.12-3.11-1.05-3.11-1.05l.42-1.81s1.11.84,2,.79c.58-.04.79-.51.76-.85-.08-1.38-2.36-1.31-2.51-3.57-.12-1.91,1.14-3.85,3.91-4.04,1.09-.1,1.64.18,1.64.18Z"/><path class="cls-1" d="M26.69,11.66c-.63-.34-.96-.63-.96-1.03,0-.51.45-.84,1.16-.84.82,0,1.55.34,1.55.34l.58-1.77s-.53-.41-2.1-.41c-2.18,0-3.7,1.25-3.7,3.01,0,.99.7,1.76,1.65,2.3.76.44,1.03.74,1.03,1.2s-.38.85-1.09.85c-1.05,0-2.05-.55-2.05-.55l-.62,1.77s.92.62,2.46.62c2.24,0,3.85-1.1,3.85-3.09.01-1.08-.8-1.84-1.78-2.4h0ZM35.63,7.93c-1.1,0-1.98.52-2.64,1.32h-.04s.96-5.03.96-5.03h-2.5l-2.42,12.76h2.5l.84-4.36c.33-1.65,1.18-2.67,1.98-2.67.56,0,.78.38.78.92,0,.34-.04.76-.11,1.1l-.95,4.99h2.5l.98-5.16c.11-.55.18-1.2.18-1.62,0-1.39-.75-2.25-2.05-2.25h0ZM43.32,7.93c-3.01,0-4.99,2.71-4.99,5.74,0,1.94,1.2,3.49,3.44,3.49,2.94,0,4.94-2.64,4.94-5.74-.01-1.78-1.07-3.49-3.39-3.49h0ZM42.09,15.24c-.85,0-1.21-.73-1.21-1.62,0-1.43.74-3.77,2.1-3.77.88,0,1.18.76,1.18,1.5,0,1.54-.74,3.89-2.06,3.89ZM53.09,7.93c-1.68,0-2.64,1.48-2.64,1.48h-.04l.15-1.35h-2.21c-.11.91-.3,2.28-.51,3.31l-1.73,9.14h2.5l.69-3.7h.05s.51.33,1.47.33c2.93,0,4.85-3.01,4.85-6.05.01-1.66-.74-3.16-2.57-3.16h0ZM50.7,15.28c-.65,0-1.03-.36-1.03-.36l.41-2.34c.29-1.55,1.1-2.59,1.98-2.59.76,0,.99.7.99,1.38,0,1.61-.96,3.91-2.35,3.91ZM59.23,4.35c-.8,0-1.43.63-1.43,1.45,0,.74.47,1.25,1.18,1.25h.04c.78,0,1.45-.52,1.47-1.45,0-.73-.48-1.25-1.25-1.25h0ZM55.74,16.98h2.5l1.7-8.85h-2.52l-1.67,8.85ZM66.29,8.11h-1.73l.08-.41c.15-.85.65-1.61,1.48-1.61.45,0,.8.12.8.12l.48-1.95s-.44-.22-1.36-.22-1.77.25-2.45.84c-.85.73-1.25,1.77-1.45,2.82l-.07.41h-1.16l-.36,1.88h1.16l-1.32,6.99h2.5l1.32-6.99h1.72l.36-1.88h0ZM72.3,8.13s-1.56,3.94-2.27,6.08h-.04c-.05-.69-.62-6.08-.62-6.08h-2.62l1.5,8.13c.04.18.01.29-.05.41-.29.56-.78,1.1-1.36,1.5-.47.34-.99.56-1.42.7l.69,2.12c.51-.11,1.55-.52,2.45-1.36,1.14-1.07,2.19-2.71,3.27-4.96l3.05-6.56h-2.61Z"/></svg>